<?xml version="1.0" encoding="UTF-8" standalone="no"?>
<svg
        xmlns:dc="http://purl.org/dc/elements/1.1/"
        xmlns:cc="http://creativecommons.org/ns#"
        xmlns:rdf="http://www.w3.org/1999/02/22-rdf-syntax-ns#"
        xmlns:svg="http://www.w3.org/2000/svg"
        xmlns="http://www.w3.org/2000/svg"
        viewBox="0 0 970 370"
        xml:space="preserve"
        id="svg2"
        version="1.1"><metadata
     id="metadata8"><rdf:RDF><cc:Work
         rdf:about=""><dc:format>image/svg+xml</dc:format><dc:type
        rdf:resource="http://purl.org/dc/dcmitype/StillImage" /></cc:Work></rdf:RDF></metadata>
    <g
            transform="matrix(1.3333333,0,0,-1.3333333,0,590)"
            id="g10"><g
           transform="translate(110.8232,434.9805)"
           id="g20"><path
             id="path22"
             style="fill:#ee3338;fill-opacity:1;fill-rule:evenodd;stroke:none"
             d="m 0,0 h 46.271 v -105.845 h 105.844 v -46.271 H 46.271 V -257.961 H 0 v 105.845 h -105.845 v 46.271 H 0 Z m 137.736,-63.609 v 0 c -3.241,6.122 -7.202,11.883 -11.883,17.285 -12.176,-9.896 -19.141,-18.461 -25.995,-29.687 -3.5,-5.734 -8.686,-13.156 -21.538,-24.598 h 27.548 c 12.783,7.202 20.435,26.287 31.868,37 M 51.507,-78.733 v 0 c 10.501,5.48 18.842,14.201 25.022,26.163 5.897,11.413 13.978,21.269 26.638,27.852 -5.852,3.96 -11.703,7.922 -17.555,11.883 C 76.587,-17.597 66.3,-26.774 51.507,-51.726 Z m 56.251,51.044 v 0 C 98.089,-33.694 88.58,-41.749 79.632,-57.127 72.808,-68.857 63.582,-78.643 51.507,-86.565 v -14.044 h 15.471 c 14.682,8.011 22.266,18.899 28.686,29.941 11.889,20.446 17.965,18.75 26.948,28.125 -5.155,7.184 -10.061,11.639 -14.854,14.854 M 88.506,-243.582 v 0 c 6.121,3.241 11.883,7.202 17.285,11.883 -9.896,12.176 -18.461,19.141 -29.687,25.994 -5.733,3.501 -13.157,8.686 -24.597,21.539 v -27.548 c 7.201,-12.783 26.286,-20.435 36.999,-31.868 m -15.124,86.229 v 0 c 5.48,-10.501 14.201,-18.842 26.163,-25.022 11.413,-5.896 21.268,-13.978 27.851,-26.638 l 11.883,17.555 c -4.761,9.024 -13.939,19.312 -38.89,34.105 z m 51.043,-56.251 v 0 c -6.004,9.668 -14.059,19.178 -29.437,28.125 -11.731,6.826 -21.516,16.05 -29.438,28.126 H 51.507 v -15.47 c 8.01,-14.683 18.898,-22.267 29.939,-28.687 20.446,-11.889 18.751,-17.966 28.126,-26.948 7.183,5.155 11.638,10.061 14.853,14.854 m -215.891,19.251 v 0 c 3.241,-6.121 7.202,-11.882 11.883,-17.284 12.176,9.896 19.141,18.461 25.994,29.687 3.501,5.733 8.686,13.157 21.539,24.597 h -27.548 c -12.783,-7.201 -20.435,-26.287 -31.868,-37 m 86.229,15.125 v 0 c -10.501,-5.48 -18.842,-14.202 -25.023,-26.164 -5.896,-11.412 -13.977,-21.267 -26.637,-27.85 5.852,-3.961 11.703,-7.922 17.554,-11.884 9.026,4.762 19.313,13.939 34.106,38.891 z m -56.251,-51.043 v 0 c 9.668,6.004 19.179,14.059 28.126,29.437 6.824,11.73 16.05,21.516 28.125,29.438 v 14.043 h -15.471 c -14.682,-8.01 -22.266,-18.898 -28.686,-29.939 -11.889,-20.446 -17.965,-18.751 -26.948,-28.126 5.155,-7.184 10.061,-11.639 14.854,-14.853 m 19.252,215.892 v 0 c -6.121,-3.241 -11.883,-7.202 -17.285,-11.883 9.896,-12.176 18.461,-19.141 29.687,-25.994 5.733,-3.501 13.156,-8.686 24.597,-21.539 v 27.547 c -7.201,12.784 -26.286,20.436 -36.999,31.869 m 15.124,-86.23 v 0 c -5.48,10.502 -14.201,18.843 -26.163,25.024 -11.413,5.896 -21.268,13.977 -27.851,26.637 -3.961,-5.851 -7.922,-11.703 -11.883,-17.554 4.761,-9.026 13.939,-19.313 38.89,-34.107 z m -51.043,56.252 v 0 c 6.004,-9.668 14.059,-19.179 29.437,-28.126 11.73,-6.825 21.516,-16.05 29.438,-28.126 h 14.043 v 15.471 c -8.01,14.683 -18.898,22.267 -29.939,28.687 -20.447,11.889 -18.751,17.966 -28.126,26.948 -7.183,-5.155 -11.638,-10.061 -14.853,-14.854" />
</g>
        <g
                transform="translate(337.0156,351.98)"
                id="g24"><path
             id="path26"
             style="fill:#373535;fill-opacity:1;fill-rule:nonzero;stroke:none"
             d="m 0,0 13.87,-4.394 c -2.131,-7.744 -5.665,-13.491 -10.619,-17.254 -4.937,-3.75 -11.227,-5.633 -18.841,-5.633 -9.411,0 -17.156,3.22 -23.217,9.643 -6.059,6.443 -9.097,15.244 -9.097,26.389 0,11.807 3.054,20.971 9.147,27.511 6.093,6.522 14.102,9.792 24.043,9.792 8.669,0 15.721,-2.559 21.137,-7.696 3.236,-3.02 5.646,-7.38 7.265,-13.06 L -0.496,21.913 c -0.825,3.681 -2.577,6.588 -5.251,8.719 -2.658,2.128 -5.896,3.185 -9.694,3.185 -5.251,0 -9.528,-1.882 -12.796,-5.664 -3.27,-3.763 -4.906,-9.873 -4.906,-18.328 0,-8.967 1.603,-15.358 4.839,-19.156 3.22,-3.814 7.414,-5.713 12.567,-5.713 3.814,0 7.084,1.207 9.825,3.633 C -3.172,-9.001 -1.207,-5.185 0,0 M 90.126,-26.075 H 74.539 L 68.347,-9.957 H 39.992 L 34.147,-26.075 H 18.956 L 46.581,44.848 H 61.724 Z M 63.756,1.981 53.979,28.302 44.402,1.981 Z m 34,-28.056 v 70.923 h 30.152 c 7.579,0 13.079,-0.644 16.514,-1.915 3.433,-1.272 6.192,-3.534 8.256,-6.788 2.064,-3.268 3.087,-6.983 3.087,-11.178 0,-5.318 -1.569,-9.725 -4.69,-13.193 -3.119,-3.451 -7.808,-5.649 -14.035,-6.541 3.105,-1.816 5.664,-3.797 7.678,-5.96 2.015,-2.162 4.724,-5.994 8.141,-11.51 l 8.669,-13.838 h -17.125 l -10.351,15.439 c -3.683,5.515 -6.193,8.985 -7.547,10.421 -1.354,1.435 -2.791,2.41 -4.31,2.956 -1.52,0.527 -3.914,0.791 -7.216,0.791 h -2.89 v -29.607 z m 14.333,40.936 h 10.586 c 6.868,0 11.161,0.28 12.879,0.858 1.702,0.577 3.039,1.586 4.013,3.006 0.956,1.42 1.452,3.188 1.452,5.318 0,2.394 -0.642,4.31 -1.915,5.779 -1.271,1.47 -3.071,2.394 -5.399,2.791 -1.157,0.147 -4.641,0.23 -10.452,0.23 h -11.164 z m 56.738,29.987 h 14.317 v -70.923 h -14.317 z m 43.924,-70.923 v 58.918 h -21.037 v 12.005 h 56.358 V 32.843 h -20.988 v -58.918 z m 101.175,0 h -15.587 l -6.193,16.118 h -28.353 l -5.846,-16.118 h -15.191 l 27.625,70.923 h 15.142 z m -26.37,28.056 -9.777,26.321 -9.577,-26.321 z m 30.336,-4.987 13.935,1.371 c 0.826,-4.689 2.526,-8.125 5.103,-10.322 2.559,-2.179 6.01,-3.284 10.371,-3.284 4.606,0 8.09,0.972 10.418,2.938 2.345,1.949 3.517,4.229 3.517,6.836 0,1.686 -0.495,3.105 -1.486,4.277 -0.975,1.19 -2.692,2.213 -5.152,3.071 -1.668,0.596 -5.5,1.619 -11.46,3.105 -7.678,1.899 -13.063,4.245 -16.15,7.017 -4.359,3.899 -6.538,8.653 -6.538,14.269 0,3.615 1.024,6.983 3.071,10.139 2.048,3.137 5.004,5.531 8.85,7.183 3.864,1.635 8.506,2.46 13.954,2.46 8.917,0 15.604,-1.949 20.112,-5.845 4.493,-3.915 6.853,-9.116 7.084,-15.638 l -14.316,-0.629 c -0.61,3.651 -1.932,6.277 -3.947,7.862 -2.014,1.6 -5.036,2.394 -9.066,2.394 -4.16,0 -7.429,-0.842 -9.776,-2.559 -1.518,-1.09 -2.277,-2.559 -2.277,-4.394 0,-1.683 0.709,-3.119 2.131,-4.309 1.799,-1.519 6.191,-3.105 13.159,-4.738 6.968,-1.654 12.122,-3.353 15.456,-5.103 3.337,-1.768 5.944,-4.162 7.844,-7.217 1.882,-3.054 2.825,-6.82 2.825,-11.295 0,-4.061 -1.124,-7.877 -3.385,-11.411 -2.264,-3.55 -5.451,-6.192 -9.579,-7.909 -4.128,-1.734 -9.279,-2.592 -15.439,-2.592 -8.966,0 -15.853,2.064 -20.658,6.208 -4.805,4.144 -7.678,10.189 -8.601,18.115 M -45.196,-136.76 v 70.923 h 14.317 v -31.49 l 28.93,31.49 H 17.305 L -9.396,-93.462 18.757,-136.76 H 0.229 l -19.483,33.289 -11.625,-11.857 v -21.432 z m 70.647,35.023 c 0,7.233 1.073,13.294 3.238,18.197 1.617,3.601 3.814,6.853 6.605,9.726 2.791,2.857 5.846,4.988 9.164,6.375 4.426,1.883 9.512,2.808 15.291,2.808 10.453,0 18.808,-3.239 25.082,-9.727 6.276,-6.474 9.414,-15.488 9.414,-27.033 0,-11.459 -3.121,-20.407 -9.348,-26.882 -6.223,-6.455 -14.548,-9.693 -24.951,-9.693 -10.551,0 -18.94,3.219 -25.164,9.642 -6.226,6.443 -9.331,15.308 -9.331,26.587 m 14.746,0.479 c 0,-8.024 1.866,-14.117 5.566,-18.264 3.715,-4.144 8.421,-6.208 14.135,-6.208 5.697,0 10.386,2.049 14.051,6.176 3.652,4.112 5.484,10.272 5.484,18.493 0,8.125 -1.785,14.186 -5.334,18.198 -3.567,3.997 -8.307,5.994 -14.201,5.994 -5.912,0 -10.668,-2.029 -14.285,-6.077 -3.6,-4.046 -5.416,-10.138 -5.416,-18.312 m 63.781,-12.434 13.936,1.371 c 0.825,-4.689 2.524,-8.125 5.103,-10.322 2.559,-2.179 6.01,-3.284 10.37,-3.284 4.607,0 8.091,0.972 10.418,2.938 2.346,1.949 3.518,4.229 3.518,6.836 0,1.686 -0.495,3.106 -1.486,4.278 -0.975,1.189 -2.692,2.212 -5.153,3.07 -1.667,0.597 -5.499,1.619 -11.459,3.105 -7.678,1.899 -13.063,4.245 -16.15,7.018 -4.359,3.898 -6.538,8.652 -6.538,14.268 0,3.615 1.023,6.984 3.07,10.139 2.048,3.137 5.004,5.531 8.85,7.183 3.864,1.634 8.506,2.461 13.955,2.461 8.916,0 15.604,-1.951 20.112,-5.846 4.493,-3.915 6.853,-9.116 7.084,-15.638 l -14.317,-0.629 c -0.609,3.652 -1.931,6.277 -3.946,7.862 -2.014,1.6 -5.036,2.394 -9.066,2.394 -4.16,0 -7.43,-0.842 -9.776,-2.559 -1.519,-1.089 -2.277,-2.56 -2.277,-4.394 0,-1.684 0.709,-3.119 2.13,-4.309 1.8,-1.518 6.192,-3.106 13.159,-4.738 6.969,-1.654 12.123,-3.353 15.457,-5.103 3.337,-1.768 5.944,-4.162 7.842,-7.217 1.883,-3.055 2.826,-6.82 2.826,-11.294 0,-4.062 -1.123,-7.878 -3.385,-11.412 -2.263,-3.55 -5.451,-6.192 -9.579,-7.909 -4.128,-1.734 -9.279,-2.592 -15.439,-2.592 -8.966,0 -15.853,2.064 -20.657,6.208 -4.805,4.144 -7.679,10.189 -8.602,18.115 m 68.994,11.955 c 0,7.233 1.073,13.294 3.237,18.197 1.617,3.601 3.814,6.853 6.605,9.726 2.791,2.857 5.846,4.988 9.164,6.375 4.426,1.883 9.512,2.808 15.292,2.808 10.453,0 18.807,-3.239 25.082,-9.727 6.276,-6.474 9.414,-15.488 9.414,-27.033 0,-11.459 -3.121,-20.407 -9.348,-26.882 -6.225,-6.455 -14.549,-9.693 -24.951,-9.693 -10.551,0 -18.941,3.219 -25.164,9.642 -6.227,6.443 -9.331,15.308 -9.331,26.587 m 14.745,0.479 c 0,-8.024 1.867,-14.117 5.566,-18.264 3.715,-4.144 8.421,-6.208 14.136,-6.208 5.696,0 10.386,2.049 14.051,6.176 3.651,4.112 5.483,10.272 5.483,18.493 0,8.125 -1.784,14.186 -5.334,18.198 -3.566,3.997 -8.307,5.994 -14.2,5.994 -5.912,0 -10.669,-2.029 -14.285,-6.077 -3.601,-4.046 -5.417,-10.138 -5.417,-18.312 m 85.494,-35.502 -25.348,70.923 h 15.539 l 17.934,-52.495 17.372,52.495 h 15.19 l -25.395,-70.923 z m 106.794,0 h -15.588 l -6.191,16.117 h -28.355 l -5.846,-16.117 h -15.19 l 27.625,70.923 h 15.143 z m -26.37,28.055 -9.778,26.321 -9.576,-26.321 z" />
</g>
</g>
</svg>